<mxfile host="app.diagrams.net" agent="Mozilla/5.0 (Macintosh; Intel Mac OS X 10_15_7) AppleWebKit/537.36 (KHTML, like Gecko) Chrome/131.0.0.0 Safari/537.36" version="24.8.7">
  <diagram name="Страница — 1" id="cO6WAd-ebU227lT7U9dY">
    <mxGraphModel dx="2985" dy="1663" grid="1" gridSize="10" guides="1" tooltips="1" connect="1" arrows="1" fold="1" page="1" pageScale="1" pageWidth="1169" pageHeight="827" math="0" shadow="0">
      <root>
        <mxCell id="0" />
        <mxCell id="1" parent="0" />
        <mxCell id="vQ_Zw1C1ER5qxWSzFmdy-1" value="" style="pointerEvents=1;shadow=0;dashed=0;html=1;strokeColor=none;fillColor=#4495D1;labelPosition=center;verticalLabelPosition=bottom;verticalAlign=top;align=center;outlineConnect=0;shape=mxgraph.veeam.laptop;" parent="1" vertex="1">
          <mxGeometry x="20" y="240" width="90" height="54" as="geometry" />
        </mxCell>
        <mxCell id="vQ_Zw1C1ER5qxWSzFmdy-4" value="" style="image;html=1;image=img/lib/clip_art/computers/iPad_128x128.png" parent="1" vertex="1">
          <mxGeometry x="27.5" y="330" width="75" height="70" as="geometry" />
        </mxCell>
        <mxCell id="vQ_Zw1C1ER5qxWSzFmdy-5" value="" style="html=1;verticalLabelPosition=bottom;align=center;labelBackgroundColor=#ffffff;verticalAlign=top;strokeWidth=2;strokeColor=#0080F0;shadow=0;dashed=0;shape=mxgraph.ios7.icons.smartphone;" parent="1" vertex="1">
          <mxGeometry x="41" y="450" width="48" height="70" as="geometry" />
        </mxCell>
        <mxCell id="vQ_Zw1C1ER5qxWSzFmdy-6" value="" style="shape=curlyBracket;whiteSpace=wrap;html=1;rounded=1;flipH=1;labelPosition=right;verticalLabelPosition=middle;align=left;verticalAlign=middle;fillColor=#0050ef;fontColor=#ffffff;strokeColor=#001DBC;" parent="1" vertex="1">
          <mxGeometry x="120" y="270" width="20" height="240" as="geometry" />
        </mxCell>
        <mxCell id="vQ_Zw1C1ER5qxWSzFmdy-8" value="" style="endArrow=open;endFill=1;endSize=12;html=1;rounded=0;fillColor=#0050ef;strokeColor=#001DBC;" parent="1" edge="1">
          <mxGeometry width="160" relative="1" as="geometry">
            <mxPoint x="140" y="390" as="sourcePoint" />
            <mxPoint x="240" y="390" as="targetPoint" />
          </mxGeometry>
        </mxCell>
        <mxCell id="vQ_Zw1C1ER5qxWSzFmdy-9" value="" style="image;html=1;image=img/lib/clip_art/computers/Server_128x128.png" parent="1" vertex="1">
          <mxGeometry x="570" y="90" width="80" height="80" as="geometry" />
        </mxCell>
        <mxCell id="vQ_Zw1C1ER5qxWSzFmdy-10" value="" style="image;html=1;image=img/lib/clip_art/computers/Server_128x128.png" parent="1" vertex="1">
          <mxGeometry x="570" y="610" width="80" height="80" as="geometry" />
        </mxCell>
        <mxCell id="vQ_Zw1C1ER5qxWSzFmdy-11" value="" style="strokeWidth=2;html=1;shape=mxgraph.flowchart.database;whiteSpace=wrap;" parent="1" vertex="1">
          <mxGeometry x="890" y="360" width="60" height="60" as="geometry" />
        </mxCell>
        <mxCell id="vQ_Zw1C1ER5qxWSzFmdy-13" value="Network Load Balancer" style="sketch=0;outlineConnect=0;fontColor=#232F3E;gradientColor=none;strokeColor=#ffffff;fillColor=#232F3E;dashed=0;verticalLabelPosition=middle;verticalAlign=bottom;align=center;html=1;whiteSpace=wrap;fontSize=10;fontStyle=1;spacing=3;shape=mxgraph.aws4.productIcon;prIcon=mxgraph.aws4.network_load_balancer;" parent="1" vertex="1">
          <mxGeometry x="240" y="346" width="80" height="114" as="geometry" />
        </mxCell>
        <mxCell id="vQ_Zw1C1ER5qxWSzFmdy-17" value="" style="strokeWidth=2;html=1;shape=mxgraph.flowchart.annotation_2;align=left;labelPosition=right;pointerEvents=1;fillColor=#0050ef;fontColor=#ffffff;strokeColor=#001DBC;" parent="1" vertex="1">
          <mxGeometry x="320" y="130" width="220" height="520" as="geometry" />
        </mxCell>
        <mxCell id="vQ_Zw1C1ER5qxWSzFmdy-31" value="" style="strokeWidth=2;html=1;shape=mxgraph.flowchart.annotation_2;align=left;labelPosition=right;pointerEvents=1;rotation=-180;fillColor=#60a917;fontColor=#ffffff;strokeColor=#2D7600;" parent="1" vertex="1">
          <mxGeometry x="670" y="130" width="220" height="520" as="geometry" />
        </mxCell>
        <mxCell id="vQ_Zw1C1ER5qxWSzFmdy-34" value="" style="strokeWidth=2;html=1;shape=mxgraph.flowchart.database;whiteSpace=wrap;" parent="1" vertex="1">
          <mxGeometry x="1040" y="360" width="60" height="60" as="geometry" />
        </mxCell>
        <mxCell id="vQ_Zw1C1ER5qxWSzFmdy-47" value="" style="line;strokeWidth=2;html=1;fillColor=#60a917;fontColor=#ffffff;strokeColor=#2D7600;" parent="1" vertex="1">
          <mxGeometry x="950" y="385" width="90" height="10" as="geometry" />
        </mxCell>
        <mxCell id="vQ_Zw1C1ER5qxWSzFmdy-48" value="" style="line;strokeWidth=2;direction=south;html=1;fillColor=#e1d5e7;strokeColor=#9673a6;" parent="1" vertex="1">
          <mxGeometry x="915" y="310" width="10" height="50" as="geometry" />
        </mxCell>
        <mxCell id="vQ_Zw1C1ER5qxWSzFmdy-49" value="" style="sketch=0;pointerEvents=1;shadow=0;dashed=0;html=1;strokeColor=none;fillColor=#DF8C42;labelPosition=center;verticalLabelPosition=bottom;verticalAlign=top;align=center;outlineConnect=0;shape=mxgraph.veeam2.nas_backup;" parent="1" vertex="1">
          <mxGeometry x="566.49" y="730" width="77" height="84" as="geometry" />
        </mxCell>
        <mxCell id="vQ_Zw1C1ER5qxWSzFmdy-50" value="" style="line;strokeWidth=2;direction=south;html=1;fillColor=#e1d5e7;strokeColor=#9673a6;" parent="1" vertex="1">
          <mxGeometry x="600" y="680" width="10" height="50" as="geometry" />
        </mxCell>
        <mxCell id="vQ_Zw1C1ER5qxWSzFmdy-51" value="" style="sketch=0;pointerEvents=1;shadow=0;dashed=0;html=1;strokeColor=none;fillColor=#DF8C42;labelPosition=center;verticalLabelPosition=bottom;verticalAlign=top;align=center;outlineConnect=0;shape=mxgraph.veeam2.nas_backup;" parent="1" vertex="1">
          <mxGeometry x="881.5" y="232" width="77" height="84" as="geometry" />
        </mxCell>
        <mxCell id="vQ_Zw1C1ER5qxWSzFmdy-57" value="" style="editableCssRules=.*;html=1;shape=image;verticalLabelPosition=bottom;labelBackgroundColor=#ffffff;verticalAlign=top;aspect=fixed;imageAspect=0;image=data:image/svg+xml,PHN2ZyB4bWxucz0iaHR0cDovL3d3dy53My5vcmcvMjAwMC9zdmciIHhtbG5zOnY9Imh0dHBzOi8vdmVjdGEuaW8vbmFubyIgd2lkdGg9IjIwIiBoZWlnaHQ9IjEzLjUyOTk5OTczMjk3MTE5MSIgdmlld0JveD0iLTIuOTMyMDk3ODk3ODEyMDE0ZS05IC01LjI1ODAxNTA0MTgzNzk1NmUtMTUgMjAgMTMuNTI5OTk5NzMyOTcxMTkxIj4mI3hhOwk8c3R5bGUgdHlwZT0idGV4dC9jc3MiPiYjeGE7CS5zdDB7ZmlsbDojNDI4NWY0O30mI3hhOwkuc3Qxe2ZpbGw6IzY2OWRmNjt9JiN4YTsJPC9zdHlsZT4mI3hhOwk8cGF0aCBjbGFzcz0ic3QxIiBkPSJNOC44MyAxMC41OGgyLjMzdjIuNjRIOC44M3oiLz4mI3hhOwk8cGF0aCBjbGFzcz0ic3QwIiBkPSJNMTYuNDggOC42MWEuNTYuNTYgMCAwIDEtLjQtLjE3TDEyIDQuMjEgOS4yNiA3LjFhLjU3LjU3IDAgMCAxLS43Ni4wNUw2LjQyIDUuNDdsLTIuMiAyLjkyYS41Ni41NiAwIDAgMS0uNDUuMjJIMHYxLjcxYS43NS43NSAwIDAgMCAuNzQuNzVoMTguNTJhLjc1Ljc1IDAgMCAwIC43NC0uNzVWOC42MXoiLz4mI3hhOwk8cGF0aCBjbGFzcz0ic3QxIiBkPSJNMy41IDcuNWwyLjM4LTMuMTZhLjU1LjU1IDAgMCAxIC4zNy0uMjIuNjMuNjMgMCAwIDEgLjQyLjEybDIuMTIgMS43MiAyLjgtMi45NGEuNTQuNTQgMCAwIDEgLjQtLjE3aDBhLjU0LjU0IDAgMCAxIC40LjE3bDQuMzMgNC40OEgyMFYuNzRhLjc0Ljc0IDAgMCAwLS43NC0uNzRILjc0QS43NC43NCAwIDAgMCAwIC43NHY2LjgxeiIvPiYjeGE7CTxyZWN0IGNsYXNzPSJzdDAiIHg9IjYuNjciIHk9IjEyLjkyIiB3aWR0aD0iNi42NyIgaGVpZ2h0PSIuNjEiIHJ4PSIuMyIvPiYjeGE7PC9zdmc+;" parent="1" vertex="1">
          <mxGeometry x="509.28" y="316" width="191.43" height="134" as="geometry" />
        </mxCell>
        <mxCell id="vQ_Zw1C1ER5qxWSzFmdy-61" value="ZABBIX" style="text;html=1;align=center;verticalAlign=middle;resizable=0;points=[];autosize=1;strokeColor=none;fillColor=none;fontSize=18;" parent="1" vertex="1">
          <mxGeometry x="560" y="270" width="90" height="40" as="geometry" />
        </mxCell>
        <mxCell id="iHndo1SLDrEJ3PNxgNv2-7" value="" style="line;strokeWidth=2;html=1;fillColor=#f8cecc;strokeColor=#b85450;" vertex="1" parent="1">
          <mxGeometry x="280" y="520" width="640" height="10" as="geometry" />
        </mxCell>
        <mxCell id="iHndo1SLDrEJ3PNxgNv2-8" value="" style="line;strokeWidth=2;direction=south;html=1;fillColor=#f8cecc;strokeColor=#b85450;" vertex="1" parent="1">
          <mxGeometry x="915" y="426" width="10" height="100" as="geometry" />
        </mxCell>
        <mxCell id="iHndo1SLDrEJ3PNxgNv2-10" value="" style="line;strokeWidth=2;direction=south;html=1;fillColor=#f8cecc;strokeColor=#b85450;" vertex="1" parent="1">
          <mxGeometry x="275" y="466" width="10" height="60" as="geometry" />
        </mxCell>
        <mxCell id="iHndo1SLDrEJ3PNxgNv2-11" value="" style="line;strokeWidth=2;direction=south;html=1;fillColor=#f8cecc;strokeColor=#b85450;" vertex="1" parent="1">
          <mxGeometry x="600" y="460" width="10" height="160" as="geometry" />
        </mxCell>
        <mxCell id="iHndo1SLDrEJ3PNxgNv2-12" value="NGINX" style="text;html=1;align=center;verticalAlign=middle;resizable=0;points=[];autosize=1;strokeColor=none;fillColor=none;fontSize=18;" vertex="1" parent="1">
          <mxGeometry x="240" y="300" width="80" height="40" as="geometry" />
        </mxCell>
        <mxCell id="iHndo1SLDrEJ3PNxgNv2-13" value="HTTP" style="text;html=1;align=center;verticalAlign=middle;resizable=0;points=[];autosize=1;strokeColor=none;fillColor=none;fontSize=13;" vertex="1" parent="1">
          <mxGeometry x="150" y="350" width="60" height="30" as="geometry" />
        </mxCell>
        <mxCell id="iHndo1SLDrEJ3PNxgNv2-14" value="Сервер&amp;nbsp;&lt;span style=&quot;background-color: rgb(255, 255, 255); color: rgba(0, 0, 0, 0.85); font-family: &amp;quot;YS Text&amp;quot;, sans-serif; text-align: start; text-wrap-mode: wrap;&quot;&gt;MediaWiki&lt;/span&gt;" style="text;html=1;align=center;verticalAlign=middle;resizable=0;points=[];autosize=1;strokeColor=none;fillColor=none;fontSize=18;" vertex="1" parent="1">
          <mxGeometry x="600" y="150" width="170" height="40" as="geometry" />
        </mxCell>
        <mxCell id="iHndo1SLDrEJ3PNxgNv2-15" value="Сервер&amp;nbsp;&lt;span style=&quot;background-color: rgb(255, 255, 255); color: rgba(0, 0, 0, 0.85); font-family: &amp;quot;YS Text&amp;quot;, sans-serif; text-align: start; text-wrap-mode: wrap;&quot;&gt;MediaWiki&lt;/span&gt;" style="text;html=1;align=center;verticalAlign=middle;resizable=0;points=[];autosize=1;strokeColor=none;fillColor=none;fontSize=18;" vertex="1" parent="1">
          <mxGeometry x="610" y="580" width="170" height="40" as="geometry" />
        </mxCell>
        <mxCell id="iHndo1SLDrEJ3PNxgNv2-16" value="&lt;span style=&quot;color: rgba(0, 0, 0, 0.85); font-family: &amp;quot;YS Text&amp;quot;, sans-serif; text-align: start; white-space: pre-wrap; background-color: rgb(245, 245, 245);&quot;&gt;PostgreSQL&lt;/span&gt;" style="text;html=1;align=center;verticalAlign=middle;resizable=0;points=[];autosize=1;strokeColor=none;fillColor=none;fontSize=18;" vertex="1" parent="1">
          <mxGeometry x="800" y="330" width="120" height="40" as="geometry" />
        </mxCell>
        <mxCell id="iHndo1SLDrEJ3PNxgNv2-17" value="&lt;div style=&quot;text-align: start;&quot;&gt;&lt;font face=&quot;YS Text, sans-serif&quot;&gt;&lt;span style=&quot;white-space: pre-wrap; background-color: rgb(245, 245, 245);&quot;&gt;Реплика&lt;/span&gt;&lt;/font&gt;&lt;/div&gt;" style="text;html=1;align=center;verticalAlign=middle;resizable=0;points=[];autosize=1;strokeColor=none;fillColor=none;fontSize=18;" vertex="1" parent="1">
          <mxGeometry x="960" y="330" width="100" height="40" as="geometry" />
        </mxCell>
        <mxCell id="iHndo1SLDrEJ3PNxgNv2-18" value="&lt;div style=&quot;text-align: start;&quot;&gt;NAS / VM&lt;/div&gt;" style="text;html=1;align=center;verticalAlign=middle;resizable=0;points=[];autosize=1;strokeColor=none;fillColor=none;fontSize=18;" vertex="1" parent="1">
          <mxGeometry x="870" y="180" width="100" height="40" as="geometry" />
        </mxCell>
        <mxCell id="iHndo1SLDrEJ3PNxgNv2-19" value="&lt;div style=&quot;text-align: start;&quot;&gt;NAS / VM&lt;/div&gt;" style="text;html=1;align=center;verticalAlign=middle;resizable=0;points=[];autosize=1;strokeColor=none;fillColor=none;fontSize=18;" vertex="1" parent="1">
          <mxGeometry x="650" y="760" width="100" height="40" as="geometry" />
        </mxCell>
        <mxCell id="iHndo1SLDrEJ3PNxgNv2-20" value="Клиент" style="text;html=1;align=center;verticalAlign=middle;resizable=0;points=[];autosize=1;strokeColor=none;fillColor=none;fontSize=18;" vertex="1" parent="1">
          <mxGeometry x="22.5" y="190" width="90" height="40" as="geometry" />
        </mxCell>
      </root>
    </mxGraphModel>
  </diagram>
</mxfile>
